<?xml version="1.0" standalone="no"?>
<!DOCTYPE svg PUBLIC "-//W3C//DTD SVG 20010904//EN"
 "http://www.w3.org/TR/2001/REC-SVG-20010904/DTD/svg10.dtd">
<svg version="1.0" xmlns="http://www.w3.org/2000/svg"
 width="16.000000pt" height="16.000000pt" viewBox="0 0 16.000000 16.000000"
 preserveAspectRatio="xMidYMid meet">
<metadata>
Created by potrace 1.11, written by Peter Selinger 2001-2013
</metadata>
<g transform="translate(0.000000,16.000000) scale(0.005333,-0.005333)"
fill="#000000" stroke="none">
<path d="M0 1500 l0 -1500 1500 0 1500 0 0 1500 0 1500 -1500 0 -1500 0 0
-1500z m760 184 c38 -22 64 -46 85 -79 60 -97 31 -236 -62 -297 -63 -41 -98
-48 -249 -48 -134 0 -179 9 -119 24 l25 6 0 190 0 190 -27 17 -27 18 59 6 c33
4 105 6 160 5 92 -1 105 -4 155 -32z m510 7 c0 -49 -13 -81 -32 -81 -15 0 -19
5 -15 20 8 31 -18 43 -102 48 l-78 4 -6 -47 c-4 -26 -7 -65 -7 -86 l0 -39 70
0 c57 0 74 4 90 20 36 36 50 26 50 -35 0 -61 -14 -71 -50 -35 -18 18 -31 20
-88 18 l-67 -3 0 -82 c1 -45 4 -86 9 -90 4 -4 40 -8 80 -8 79 1 119 18 131 55
4 11 15 20 26 20 18 0 20 -4 14 -32 -19 -84 -3 -78 -205 -78 -99 0 -180 4
-180 8 0 5 11 14 24 20 21 9 24 18 29 104 3 51 2 135 -1 186 -4 77 -8 95 -23
103 -44 23 -13 29 156 29 164 0 175 -1 175 -19z m230 9 c0 -5 -6 -10 -14 -10
-30 0 -26 -24 29 -146 91 -205 75 -198 138 -64 79 168 86 189 64 201 -34 19
-16 29 53 29 75 0 85 -8 45 -34 -25 -16 -160 -273 -200 -378 -10 -27 -24 -48
-32 -48 -8 0 -21 17 -29 38 -51 124 -189 392 -206 398 -42 13 -12 24 67 24 50
0 85 -4 85 -10z m560 0 c0 -5 -8 -10 -19 -10 -10 0 -23 -6 -29 -13 -16 -18
-26 -216 -17 -310 7 -76 8 -78 36 -84 61 -12 25 -23 -76 -23 -101 0 -136 12
-76 25 16 3 33 14 37 23 11 27 17 293 7 332 -7 27 -16 37 -41 45 -58 17 -34
25 73 25 63 0 105 -4 105 -10z m299 -152 l166 -163 3 120 c3 147 0 163 -38
177 -49 17 -24 28 61 28 75 0 102 -11 59 -25 -29 -9 -34 -41 -34 -247 -1 -166
-3 -188 -17 -188 -9 0 -29 18 -45 41 -15 22 -91 100 -168 172 l-141 132 -7
-55 c-10 -92 -8 -194 5 -220 7 -13 23 -27 36 -30 14 -3 26 -11 29 -18 3 -9
-19 -12 -82 -12 -81 0 -110 11 -67 25 27 8 31 32 31 197 0 157 -7 192 -39 203
-38 12 -22 25 30 25 l52 0 166 -162z"/>
<path d="M550 1681 c-24 -7 -25 -9 -31 -131 -4 -69 -4 -153 -2 -187 l6 -62 38
-6 c130 -22 231 63 231 194 0 32 -5 69 -12 82 -25 48 -74 90 -124 104 -53 16
-67 17 -106 6z"/>
</g>
</svg>
